# xmcd
#
# Track frame offsets: 
#        150
#        11820
#        36050
#        53629
#        67652
#        76791
#        96072
#        107620
#        121120
#        139529
#        151391
#
# Disc length: 2189 seconds
#
# Revision: 0
# Processed by: cddbd v1.5.2PL0 Copyright (c) Steve Scherf et al.
# Submitted via: ExactAudioCopy v1.0b1
#
DISCID=76088b0b
DTITLE=Matuška Waldemar - Co děláš, to dělej rád
DYEAR=1977
DGENRE=Country
TTITLE0=Co děláš, to dělej rád
TTITLE1=Slýchám harmoniku hrát
TTITLE2=Zhoupni se v sedle
TTITLE3=Jak se tak s námi točí svět
TTITLE4=Bloudím
TTITLE5=Jeden dům pro tři syny
TTITLE6=Cesty
TTITLE7=Nebe plný balónů
TTITLE8=Sindibád
TTITLE9=Chtěl jsem být kovbojem
TTITLE10=Buď rád
EXTD=
EXTT0=
EXTT1=
EXTT2=
EXTT3=
EXTT4=
EXTT5=
EXTT6=
EXTT7=
EXTT8=
EXTT9=
EXTT10=
PLAYORDER=
